<?xml version="1.0" standalone="no"?>
<!DOCTYPE svg PUBLIC "-//W3C//DTD SVG 20010904//EN"
 "http://www.w3.org/TR/2001/REC-SVG-20010904/DTD/svg10.dtd">
<svg version="1.0" xmlns="http://www.w3.org/2000/svg"
 width="478.000000pt" height="522.000000pt" viewBox="0 0 478.000000 522.000000"
 preserveAspectRatio="xMidYMid meet">

<g transform="translate(0.000000,522.000000) scale(0.100000,-0.100000)"
fill="#D4B9DB" stroke="none">
<path d="M1305 5082 c-79 -28 -157 -88 -337 -261 -199 -190 -259 -226 -401
-241 -109 -11 -150 -29 -217 -94 -30 -30 -75 -64 -99 -76 -25 -12 -69 -38 -98
-58 -50 -33 -53 -37 -53 -77 0 -42 20 -81 76 -147 12 -16 26 -38 30 -50 23
-76 82 -115 261 -173 119 -39 140 -49 184 -90 77 -72 224 -127 430 -159 86
-14 96 -18 119 -48 14 -18 49 -55 79 -84 52 -49 55 -54 54 -100 -1 -27 -8 -69
-17 -93 -35 -95 -12 -164 59 -183 46 -12 49 -16 59 -79 8 -47 50 -89 88 -89
62 0 69 10 247 330 51 91 103 175 117 188 16 14 38 22 60 22 32 0 34 -2 34
-34 0 -42 33 -86 65 -86 24 0 108 85 228 230 l53 65 145 5 145 5 42 33 c23 18
51 47 63 63 11 16 34 36 50 45 27 13 33 13 64 -2 42 -20 125 -91 125 -107 0
-7 -21 -23 -47 -37 -70 -37 -106 -94 -111 -175 -3 -49 0 -71 13 -91 22 -33 14
-50 -27 -59 -52 -12 -144 -62 -167 -91 -15 -19 -21 -41 -21 -75 0 -27 -4 -49
-8 -49 -5 0 -21 14 -37 30 -54 56 -117 33 -155 -55 -10 -24 -36 -62 -56 -85
-40 -44 -46 -45 -125 -25 -25 6 -29 2 -58 -56 -17 -34 -31 -68 -31 -75 0 -7
-16 -31 -35 -54 l-35 -42 0 -121 c-1 -221 -11 -253 -125 -395 -44 -54 -46
-102 -10 -191 14 -34 28 -81 31 -104 5 -37 2 -48 -28 -86 -69 -92 -78 -106
-78 -130 0 -34 35 -147 69 -222 66 -145 101 -273 112 -400 17 -201 -5 -357
-80 -559 -39 -105 -76 -162 -174 -266 -63 -67 -77 -88 -77 -114 0 -39 30 -83
67 -99 21 -8 311 -11 1100 -9 l1071 3 25 23 c14 13 49 69 78 124 30 55 83 135
118 177 74 89 96 133 106 216 8 71 17 84 50 77 67 -12 98 25 109 136 11 95 10
94 73 86 68 -8 96 5 129 62 21 36 24 53 24 140 -1 101 -6 135 -79 499 -23 116
-53 269 -67 340 -35 176 -60 220 -157 282 -74 47 -130 46 -254 -7 -52 -23
-112 -51 -132 -65 -55 -34 -114 -108 -156 -194 -21 -41 -44 -81 -54 -88 -9 -7
-38 -13 -64 -13 -63 0 -101 33 -88 77 17 57 42 93 94 131 28 22 68 58 87 81
19 23 80 90 136 149 55 59 105 121 111 137 7 17 16 111 22 209 10 165 9 183
-8 220 -10 23 -25 47 -34 55 -23 19 -22 28 14 69 30 34 31 38 27 108 -8 124
-65 192 -198 234 -36 12 -115 46 -177 76 -62 30 -129 61 -150 68 -33 11 -39
18 -46 54 -9 45 -61 98 -107 108 -107 24 -128 34 -135 64 -8 37 2 70 21 70 8
0 28 -7 43 -15 22 -11 83 -14 287 -16 l258 -1 28 31 c15 17 28 40 28 52 0 48
-57 113 -122 138 -22 8 -39 6 -83 -11 l-56 -21 -24 23 c-52 49 -77 121 -84
241 -6 106 -7 112 -35 136 -32 27 -19 27 -246 4 -124 -12 -197 -6 -210 19 -6
12 -3 41 11 89 19 67 19 74 5 96 -9 14 -28 28 -42 31 -45 11 -144 -4 -264 -40
-63 -18 -168 -45 -233 -59 -139 -30 -199 -56 -287 -124 -52 -39 -114 -73 -136
-73 -1 0 -24 18 -49 40 -53 46 -68 48 -151 18 -33 -12 -67 -19 -75 -16 -8 3
-33 37 -55 74 -21 38 -66 96 -99 129 -70 72 -107 86 -240 94 l-90 6 125 124
c69 69 133 136 142 150 58 85 -37 171 -186 171 -34 -1 -83 -8 -111 -18z m121
-137 c4 -10 -18 -41 -61 -87 -38 -39 -108 -126 -157 -191 -98 -133 -105 -158
-65 -218 32 -49 54 -47 128 8 63 48 63 48 137 46 131 -4 162 -25 247 -171 24
-43 56 -89 69 -101 24 -23 30 -23 111 -17 78 6 89 5 122 -15 43 -27 162 -38
215 -20 19 6 59 32 88 57 92 78 155 104 331 133 65 11 158 35 212 56 54 20
102 33 107 30 6 -4 6 -15 0 -31 -25 -65 -5 -138 46 -173 31 -21 53 -26 162
-33 117 -8 131 -7 185 13 56 21 58 21 78 3 22 -19 22 -33 3 -131 -5 -26 0 -39
35 -83 67 -85 53 -105 -59 -84 -143 27 -172 27 -208 4 -35 -21 -62 -72 -62
-115 0 -14 -2 -25 -4 -25 -2 0 -33 28 -68 63 -69 69 -171 127 -223 127 -72 0
-99 -13 -155 -72 l-56 -58 -126 0 c-70 0 -139 -5 -155 -11 -15 -6 -67 -48
-114 -95 -48 -46 -91 -84 -98 -84 -6 0 -17 16 -25 35 -12 28 -20 35 -43 35
-16 0 -39 -8 -53 -17 -13 -9 -49 -20 -79 -24 -73 -10 -103 -44 -166 -187 -26
-59 -72 -153 -102 -209 -79 -146 -113 -177 -113 -105 0 54 -10 81 -31 87 -16
6 -18 16 -13 123 6 140 1 154 -76 197 -46 26 -57 38 -75 82 -32 80 -45 90
-133 98 -180 16 -368 76 -432 138 -51 50 -77 63 -159 82 -87 21 -196 59 -228
81 -13 8 -32 34 -43 58 -12 24 -34 56 -50 71 -17 16 -30 34 -30 40 0 6 19 16
43 22 26 8 66 33 105 68 81 71 107 84 190 94 72 10 200 49 260 80 20 11 62 45
92 76 127 132 360 333 402 348 56 20 87 21 94 2z m1763 -1359 c31 -19 72 -37
93 -41 43 -8 71 -36 87 -87 14 -44 21 -49 91 -79 30 -13 80 -37 110 -55 81
-47 176 -84 239 -95 88 -14 117 -66 66 -119 -54 -56 -50 -103 16 -178 27 -30
30 -39 24 -71 -4 -20 -10 -106 -14 -193 -7 -179 -7 -179 -103 -230 -65 -35
-83 -56 -93 -116 -6 -38 -14 -47 -65 -82 -72 -49 -105 -88 -142 -167 -58 -122
-45 -239 31 -288 50 -32 139 -49 188 -36 73 20 162 91 163 131 1 8 20 47 43
85 42 69 44 71 151 124 135 67 171 73 213 37 50 -42 70 -84 83 -171 16 -109
83 -439 115 -564 21 -84 25 -121 23 -204 l-3 -102 -52 -11 c-62 -14 -115 -45
-132 -77 -7 -13 -18 -50 -24 -83 -12 -57 -14 -60 -71 -94 -33 -20 -66 -46 -73
-57 -8 -12 -18 -56 -22 -97 -6 -69 -10 -80 -42 -114 -69 -72 -131 -157 -165
-223 -18 -37 -39 -71 -46 -76 -7 -4 -455 -8 -995 -8 -916 0 -983 1 -983 17 0
9 5 20 10 23 14 9 150 214 150 227 0 6 20 63 44 127 56 147 71 258 63 455 -4
78 -13 175 -22 216 -19 97 -90 290 -132 360 -18 30 -33 63 -33 74 0 10 14 34
31 54 78 88 96 212 46 314 -15 30 -27 60 -27 67 0 6 19 37 43 68 63 82 98 143
113 192 18 58 18 176 -1 236 -8 27 -13 50 -12 50 30 14 65 46 97 90 31 43 56
63 109 89 63 32 121 84 121 107 0 6 10 9 23 7 38 -5 34 -44 -12 -93 -47 -51
-53 -87 -21 -128 43 -55 108 -42 174 34 63 75 75 142 50 289 -5 31 -1 40 27
68 41 40 123 66 189 60 60 -6 77 3 90 50 15 55 14 59 -35 105 -39 36 -45 48
-47 85 -1 34 4 48 28 73 64 69 137 77 223 25z"/>
<path d="M2544 3631 c-34 -21 -64 -75 -64 -115 0 -39 41 -76 84 -76 25 0 43 8
66 31 70 71 73 119 8 159 -41 25 -55 25 -94 1z"/>
</g>
</svg>
