<?xml version="1.0" standalone="no"?>
<!DOCTYPE svg PUBLIC "-//W3C//DTD SVG 20010904//EN"
 "http://www.w3.org/TR/2001/REC-SVG-20010904/DTD/svg10.dtd">
<svg version="1.0" xmlns="http://www.w3.org/2000/svg"
 width="474.000000pt" height="526.000000pt" viewBox="0 0 474.000000 526.000000"
 preserveAspectRatio="xMidYMid meet">

<g transform="translate(0.000000,526.000000) scale(0.100000,-0.100000)"
fill="#000000" stroke="none">
<path d="M2448 5197 c-61 -18 -86 -35 -182 -127 -84 -81 -150 -178 -182 -266
-29 -81 -25 -245 9 -371 15 -56 27 -109 27 -119 0 -12 -20 1 -63 42 -85 80
-191 154 -316 221 -120 65 -296 139 -353 148 -54 9 -86 -13 -90 -62 l-3 -37
-100 3 c-178 4 -437 -51 -491 -104 -45 -45 -27 -112 52 -197 24 -26 44 -54 44
-62 0 -8 -20 -21 -48 -30 -63 -21 -241 -125 -316 -186 -83 -65 -264 -253 -276
-285 -27 -72 5 -126 87 -146 47 -12 54 -29 28 -66 -22 -31 -82 -174 -116 -275
-54 -165 -76 -369 -44 -415 21 -31 64 -37 137 -19 105 25 289 66 348 77 99 18
239 85 279 132 25 31 49 21 56 -25 4 -24 13 -58 21 -77 14 -33 14 -33 69 -29
30 3 55 4 55 3 0 -2 -11 -27 -25 -58 -32 -69 -42 -169 -25 -234 34 -126 129
-241 230 -277 27 -10 50 -24 50 -30 0 -7 -7 -35 -15 -62 -28 -94 -16 -225 30
-315 40 -76 155 -176 234 -204 l36 -12 0 -94 c1 -125 25 -187 108 -275 63 -68
125 -106 188 -118 51 -9 64 -27 50 -67 -15 -43 -14 -153 3 -214 15 -59 58
-146 80 -164 23 -19 20 -37 -13 -85 -37 -53 -69 -148 -77 -224 -17 -164 97
-331 284 -415 71 -32 198 -29 275 6 75 34 127 78 188 157 69 90 93 172 86 289
-6 95 -20 137 -66 195 -37 46 -39 73 -8 85 16 6 34 34 59 88 48 107 62 171 55
257 l-6 72 64 28 c69 30 143 100 190 179 34 59 55 148 55 234 l0 72 40 11 c65
18 131 83 190 190 68 121 82 201 58 318 -11 53 -12 78 -5 81 72 27 137 73 184
131 72 90 93 149 93 264 0 87 -2 97 -36 161 -20 37 -32 65 -27 63 73 -36 107
-48 121 -44 27 9 52 59 52 105 0 52 11 52 87 2 101 -67 158 -91 211 -90 26 0
81 -9 122 -20 153 -43 266 -70 317 -77 47 -6 54 -4 79 21 26 26 27 28 20 118
-15 198 -65 373 -155 543 -28 51 -47 95 -43 97 4 3 23 8 42 12 62 12 70 16 85
45 39 76 11 133 -137 275 -174 167 -290 243 -452 295 -36 12 -66 26 -66 32 0
5 19 31 41 56 61 69 83 123 69 168 -13 39 -36 57 -111 85 -108 41 -165 51
-329 58 l-165 6 -3 30 c-6 49 -20 58 -82 53 -58 -5 -247 -81 -371 -150 -154
-87 -389 -277 -493 -400 -27 -32 -53 -58 -57 -58 -24 0 -104 196 -149 365 -28
103 -31 265 -6 313 19 38 36 42 36 8 0 -29 43 -112 77 -147 38 -41 118 -80
176 -86 70 -7 146 15 223 65 55 36 63 45 94 118 59 136 43 224 -60 337 -87 96
-217 136 -332 104z m184 -173 c34 -17 64 -56 79 -101 32 -99 -48 -203 -156
-203 -67 0 -126 48 -150 121 -46 139 92 250 227 183z m-1068 -527 c127 -60
440 -263 501 -324 33 -32 12 -38 -166 -44 -170 -5 -175 -5 -198 17 -34 32
-191 117 -304 166 l-95 41 -39 -19 c-86 -43 -62 -106 56 -145 136 -45 211 -86
211 -115 0 -7 -17 -18 -37 -24 -78 -24 -201 -73 -295 -117 -96 -45 -97 -46
-132 -29 -36 17 -126 31 -269 41 -87 6 -88 6 -117 -24 -38 -37 -39 -74 -4
-106 26 -24 33 -25 150 -25 103 0 124 -3 124 -15 0 -8 -22 -26 -48 -39 -57
-29 -186 -132 -259 -207 -147 -151 -172 -178 -201 -219 -18 -23 -32 -52 -32
-63 0 -34 29 -57 71 -57 36 0 42 5 104 85 105 134 394 385 444 385 7 0 11 -34
11 -97 0 -105 12 -133 56 -133 59 0 99 108 93 253 -2 48 -1 87 3 87 3 0 46 19
95 41 118 56 356 134 473 156 83 15 157 18 575 18 342 0 497 -4 540 -12 33 -7
98 -20 145 -29 177 -34 487 -157 504 -199 3 -9 6 -56 6 -103 1 -111 12 -161
45 -189 35 -31 69 -29 94 3 18 22 21 41 21 115 0 48 4 90 9 93 4 3 19 -6 32
-21 13 -14 85 -78 159 -143 74 -65 175 -161 223 -214 96 -104 125 -118 167
-76 47 47 12 115 -127 251 -114 110 -270 237 -340 277 -73 41 -59 52 68 52
109 0 111 0 140 30 34 33 33 62 -2 92 -42 36 -214 36 -353 -2 l-74 -19 -88 49
c-49 27 -142 67 -207 89 -65 21 -121 41 -123 44 -13 13 180 115 248 132 83 21
92 115 12 139 -37 11 -340 -128 -411 -189 l-39 -33 -140 9 c-76 5 -158 6 -180
3 -23 -3 -44 -2 -47 3 -4 6 24 39 61 74 71 67 246 184 397 263 50 27 94 52 99
57 6 5 20 9 32 9 22 0 34 -17 34 -49 0 -10 9 -26 20 -36 17 -15 28 -17 77 -9
98 14 403 11 441 -5 17 -7 32 -18 32 -23 0 -6 -22 -38 -49 -72 -60 -76 -71
-97 -71 -136 0 -49 34 -74 132 -98 120 -29 213 -68 283 -118 86 -61 250 -208
250 -223 0 -7 -26 -21 -60 -32 -64 -20 -95 -47 -95 -84 0 -13 20 -52 44 -87
113 -165 178 -323 192 -467 l7 -64 -59 6 c-32 4 -88 16 -124 28 -36 11 -115
31 -177 44 -116 25 -159 42 -184 71 -8 10 -36 35 -62 56 -90 71 -153 47 -177
-68 -11 -51 -13 -53 -33 -43 -47 25 -148 112 -180 157 -19 26 -38 66 -42 89
-9 57 -24 73 -70 80 -54 7 -86 -26 -93 -96 -5 -57 25 -134 76 -193 17 -19 29
-38 25 -42 -3 -3 -31 -6 -60 -6 -65 0 -145 -32 -168 -67 -19 -28 -24 -118 -7
-135 8 -8 31 -6 84 7 99 25 146 23 198 -6 114 -63 157 -196 99 -310 -41 -82
-113 -115 -223 -104 -39 3 -87 7 -106 8 l-35 2 -3 -62 c-3 -61 -3 -61 38 -94
81 -65 108 -150 85 -261 -17 -83 -53 -138 -116 -179 -63 -40 -133 -47 -250
-25 -55 10 -140 16 -238 16 -127 0 -162 -3 -217 -21 -63 -20 -67 -20 -109 -5
-36 14 -87 17 -277 19 -128 1 -269 -2 -314 -7 -75 -8 -85 -7 -136 16 -94 43
-158 151 -158 266 1 96 21 127 155 236 27 22 30 30 30 85 0 85 -8 90 -95 46
-129 -65 -206 -58 -283 24 -63 67 -78 127 -56 215 23 94 107 155 210 156 46 0
71 -7 128 -37 87 -45 94 -40 95 59 1 70 0 72 -32 94 -18 12 -66 30 -107 40
-41 10 -75 21 -75 24 0 4 13 36 29 72 38 84 56 181 41 218 -11 27 -46 50 -75
50 -31 0 -66 -44 -72 -90 -8 -62 -24 -91 -80 -140 -57 -50 -168 -114 -183
-105 -5 3 -10 21 -10 40 0 48 -15 81 -45 101 -36 23 -87 7 -157 -50 -76 -62
-116 -79 -284 -125 -106 -29 -169 -41 -217 -41 l-67 0 0 44 c0 153 67 335 165
451 71 83 77 96 64 134 -12 34 -42 54 -99 66 -19 4 -38 9 -42 12 -15 8 21 59
83 119 136 129 222 178 409 233 113 32 150 59 150 107 0 32 -12 54 -72 133
-26 35 -48 69 -48 76 0 28 225 49 355 34 175 -21 185 -22 200 -9 9 7 15 29 15
51 0 22 3 39 6 39 4 0 48 -19 98 -43z m542 -2728 c75 -13 142 -51 150 -85 4
-14 4 -51 0 -82 -7 -60 -7 -61 -106 -141 -51 -41 -125 -81 -150 -81 -41 0
-127 41 -162 77 -67 69 -96 175 -68 248 22 57 194 90 336 64z m694 0 c110 -25
140 -59 140 -159 0 -115 -53 -178 -181 -216 -47 -14 -50 -14 -96 11 -78 42
-155 92 -182 119 -20 20 -25 35 -24 74 1 48 20 99 45 119 29 24 133 50 243 61
6 1 30 -3 55 -9z m-313 -435 c61 -29 97 -68 131 -143 78 -169 -78 -381 -280
-381 -91 0 -186 70 -232 170 -24 54 -28 181 -6 220 81 149 239 203 387 134z
m-247 -669 c53 -19 191 -19 243 -1 37 14 38 13 66 -21 35 -42 51 -94 51 -165
0 -108 -41 -175 -134 -219 -89 -42 -172 -41 -246 4 -32 19 -67 51 -87 81 -29
43 -33 55 -33 115 1 81 16 126 61 180 19 22 35 41 35 41 1 0 21 -7 44 -15z"/>
<path d="M1570 3673 c0 -16 3 -44 6 -65 6 -32 11 -37 40 -43 48 -8 101 -59
114 -105 7 -25 11 -245 12 -587 l2 -548 -23 -49 c-26 -52 -70 -86 -113 -86
-26 0 -28 -3 -28 -44 0 -82 -22 -76 295 -76 l283 0 6 23 c3 12 6 39 6 60 0 35
-2 37 -32 37 -45 0 -108 38 -132 80 -19 32 -21 54 -24 289 l-3 254 47 -7 c26
-3 191 -6 368 -6 l321 0 -3 -252 c-4 -279 -9 -304 -65 -339 -17 -10 -48 -21
-69 -24 l-38 -7 0 -54 0 -54 284 0 284 0 6 23 c12 45 7 87 -11 93 -59 17 -106
50 -126 88 -21 40 -22 49 -25 586 -4 534 -3 546 17 601 26 69 49 91 109 104
43 9 48 13 56 46 5 20 6 47 3 60 l-6 24 -292 3 c-232 2 -294 0 -300 -10 -13
-20 -10 -94 4 -106 6 -5 26 -13 43 -16 17 -4 47 -20 67 -37 49 -40 57 -85 60
-344 l2 -210 -367 0 -368 0 0 235 c0 206 3 240 19 275 22 49 34 59 94 75 56
15 69 34 65 93 l-3 42 -292 3 -293 2 0 -27z"/>
</g>
</svg>
