<svg xmlns="http://www.w3.org/2000/svg" version="1.0" preserveAspectRatio="xMidYMid meet" viewBox="155.11 35.58 237.49 336.56">

<g transform="translate(0.000000,493.000000) scale(0.100000,-0.100000)" fill="#b59410" stroke="none">
<path d="M2183 4569 c-18 -5 -39 -19 -48 -31 -19 -29 -20 -121 -1 -141 8 -8 43 -17 78 -21 87 -10 213 -40 343 -83 60 -20 111 -38 113 -39 2 -1 -4 -17 -14 -35 -56 -108 -93 -297 -94 -470 l0 -95 47 -35 c25 -19 52 -38 59 -44 9 -6 20 -1 38 18 24 26 26 35 26 116 0 151 39 335 91 427 38 68 109 140 146 147 51 10 112 -4 133 -30 10 -13 20 -29 22 -34 4 -13 119 -38 179 -39 49 0 97 -24 69 -34 -8 -3 -36 -7 -63 -8 l-47 -3 45 -74 c29 -46 44 -79 40 -90 -5 -13 -12 -10 -37 19 -128 149 -195 220 -209 220 -33 0 -63 -47 -67 -109 -11 -150 73 -271 229 -331 108 -41 269 -66 269 -41 0 5 -10 30 -22 57 -25 57 -40 134 -25 134 5 0 24 -9 41 -19 81 -51 319 -95 377 -71 41 17 35 38 -44 153 -47 69 -58 91 -47 95 24 8 90 78 90 96 0 10 -24 27 -64 45 -36 16 -84 43 -108 59 -58 40 -104 58 -166 67 -29 4 -52 10 -52 15 0 4 36 46 80 94 44 47 80 90 80 95 0 17 -39 23 -153 24 -95 0 -120 -3 -162 -22 -79 -35 -172 -139 -190 -213 -5 -20 -13 -28 -29 -28 -41 0 -48 15 -57 111 -12 130 -29 141 -141 90 -42 -19 -84 -49 -125 -90 -70 -69 -58 -69 -158 -7 -27 18 -104 55 -171 83 -158 68 -243 88 -301 72z"/>
<path d="M2305 3570 c-52 -8 -91 -30 -136 -73 -145 -141 -96 -390 97 -486 65 -33 114 -25 193 28 70 48 125 123 140 192 15 66 -3 184 -34 229 -54 78 -166 126 -260 110z m-19 -146 c16 -24 16 -28 -8 -87 -27 -67 -52 -82 -82 -52 -33 34 -12 108 44 152 22 18 28 16 46 -13z"/>
<path d="M2895 3548 c-38 -14 -103 -58 -134 -91 -19 -21 -22 -32 -16 -59 10 -43 10 -205 1 -239 -7 -23 -1 -33 37 -73 87 -89 196 -118 282 -75 56 28 139 123 159 183 63 184 -62 368 -248 365 -28 0 -64 -5 -81 -11z m33 -163 c4 -38 -35 -99 -65 -103 -27 -4 -47 30 -38 66 17 70 97 98 103 37z"/>
<path d="M1700 3447 c-73 -36 -122 -92 -141 -160 -16 -61 -7 -173 20 -225 29 -57 90 -118 136 -138 l37 -15 35 40 c35 41 128 93 191 106 18 4 32 10 30 14 -2 3 -16 32 -32 64 -38 77 -45 160 -18 244 l20 62 -55 21 c-80 30 -145 26 -223 -13z m84 -96 c17 -18 16 -22 -25 -90 -56 -94 -63 -100 -94 -71 -40 38 -32 84 28 148 35 36 66 41 91 13z"/>
<path d="M3430 3447 l-65 -32 13 -50 c19 -75 12 -191 -16 -243 -25 -49 -27 -62 -9 -62 25 0 124 -53 179 -96 62 -48 77 -52 134 -28 118 49 180 137 178 254 -1 116 -59 206 -166 260 -85 42 -158 41 -248 -3z"/>
<path d="M2578 2950 c-102 -31 -187 -147 -188 -256 0 -161 121 -294 267 -294 81 0 138 35 202 123 92 125 81 238 -33 360 -59 64 -165 92 -248 67z m4 -135 c14 -31 -2 -90 -33 -123 -19 -21 -23 -22 -42 -9 -37 24 -34 69 9 116 20 23 40 41 45 41 5 0 15 -11 21 -25z"/>
<path d="M1930 2910 c-63 -30 -98 -65 -131 -135 -34 -70 -40 -170 -14 -233 21 -50 89 -118 147 -148 74 -38 120 -33 232 25 53 27 102 51 109 54 9 3 7 17 -7 57 -26 72 -27 180 -2 244 l19 49 -29 24 c-74 60 -116 77 -199 80 -65 3 -88 0 -125 -17z m65 -123 c9 -45 -45 -167 -74 -167 -32 0 -55 43 -46 87 9 51 30 82 68 98 44 20 45 19 52 -18z"/>
<path d="M3143 2903 c-28 -16 -65 -40 -83 -54 l-32 -26 18 -34 c25 -49 31 -173 10 -223 -9 -21 -16 -45 -16 -53 0 -35 162 -143 216 -143 83 0 167 48 225 130 45 64 54 91 54 159 0 54 -6 76 -30 120 -54 98 -141 151 -248 151 -51 0 -74 -6 -114 -27z"/>
<path d="M2263 2327 c-131 -55 -201 -196 -163 -330 15 -57 74 -134 129 -171 38 -25 53 -29 115 -30 92 -1 154 30 210 104 51 67 68 133 57 216 -14 99 -69 166 -175 212 -61 27 -107 27 -173 -1z m13 -153 c9 -34 -3 -88 -24 -115 -16 -18 -22 -20 -40 -10 -42 23 -41 87 2 134 29 31 53 27 62 -9z"/>
<path d="M2874 2326 c-23 -8 -60 -28 -83 -44 -23 -17 -47 -32 -53 -34 -8 -3 -6 -18 6 -47 24 -61 31 -184 13 -248 l-14 -53 32 -32 c48 -49 93 -70 160 -75 98 -8 156 17 215 93 8 10 25 32 37 47 25 33 38 116 29 181 -9 59 -74 158 -127 193 -34 22 -55 28 -108 30 -36 1 -85 -4 -107 -11z"/>
<path d="M2542 1730 c-73 -33 -99 -58 -131 -122 -66 -132 -21 -288 107 -369 78 -49 194 -38 279 27 50 38 103 140 103 200 0 109 -80 239 -166 268 -64 22 -139 20 -192 -4z m13 -134 c14 -21 14 -31 4 -65 -7 -22 -20 -48 -31 -57 -17 -16 -19 -16 -39 2 -27 24 -21 85 12 120 28 30 35 30 54 0z"/>
</g>
</svg>